<svg version="1.1" id="Layer_1" xmlns="http://www.w3.org/2000/svg" x="0" y="0" viewBox="0 0 20 20" xml:space="preserve"><style>.st0{fill:#fff}</style><path class="st0" d="M10.2 14.7c-2.5 0-4.5-2-4.5-4.5s2-4.5 4.5-4.5 4.5 2 4.5 4.5-2.1 4.5-4.5 4.5zM10.2 4.7c-.3 0-.5-.2-.5-.5v-3c0-.3.2-.5.5-.5s.5.2.5.5v3c0 .3-.3.5-.5.5zM10.2 19.7c-.3 0-.5-.2-.5-.5v-3c0-.3.2-.5.5-.5s.5.2.5.5v3c0 .3-.3.5-.5.5zM4.2 10.7h-3c-.3 0-.5-.2-.5-.5s.2-.5.5-.5h3c.3 0 .5.2.5.5s-.3.5-.5.5zM19.2 10.7h-3c-.3 0-.5-.2-.5-.5s.2-.5.5-.5h3c.3 0 .5.2.5.5s-.3.5-.5.5zM5.2 5.7c-.1 0-.3 0-.4-.1l-2-2c-.2-.2-.2-.5 0-.7s.5-.2.7 0l2 2c.2.2.2.5 0 .7-.1.1-.2.1-.3.1zM3.2 17.7c-.1 0-.3 0-.4-.1-.2-.2-.2-.5 0-.7l2-2c.2-.2.5-.2.7 0s.2.5 0 .7l-2 2c-.1.1-.2.1-.3.1zM17.2 17.7c-.1 0-.3 0-.4-.1l-2-2c-.2-.2-.2-.5 0-.7s.5-.2.7 0l2 2c.2.2.2.5 0 .7-.1.1-.2.1-.3.1zM15.2 5.7c-.1 0-.3 0-.4-.1-.2-.2-.2-.5 0-.7l2-2c.2-.2.5-.2.7 0s.2.5 0 .7l-2 2c-.1.1-.2.1-.3.1z"/></svg>