<?xml version="1.0" standalone="no"?>
<!DOCTYPE svg PUBLIC "-//W3C//DTD SVG 20010904//EN"
 "http://www.w3.org/TR/2001/REC-SVG-20010904/DTD/svg10.dtd">
<svg version="1.0" xmlns="http://www.w3.org/2000/svg"
 width="1024.000000pt" height="1024.000000pt" viewBox="0 0 1024.000000 1024.000000"
 preserveAspectRatio="xMidYMid meet">
<metadata>
Created by potrace 1.11, written by Peter Selinger 2001-2013
</metadata>
<g transform="translate(0.000000,1024.000000) scale(0.100000,-0.100000)"
fill="#000000" stroke="none">
<path d="M4890 8700 c-860 -65 -1640 -415 -2254 -1010 -287 -278 -509 -578
-692 -935 -204 -396 -317 -767 -378 -1235 l-6 -45 857 -387 c472 -213 865
-390 874 -393 15 -6 17 7 20 107 4 109 6 118 43 194 67 135 183 231 327 269
84 23 2748 22 2834 0 77 -21 147 -59 211 -118 107 -98 153 -202 163 -374 l6
-112 899 407 898 406 -6 67 c-18 196 -80 471 -161 716 -410 1231 -1491 2167
-2765 2393 -274 48 -627 68 -870 50z"/>
<path d="M1540 5104 c0 -85 24 -376 41 -489 47 -329 151 -683 283 -969 38 -81
48 -95 72 -100 16 -3 322 -56 679 -116 358 -60 660 -112 673 -115 l22 -5 0
507 0 508 -868 392 c-477 216 -875 395 -884 399 -13 4 -18 1 -18 -12z"/>
<path d="M7795 4710 l-900 -408 -3 -490 c-2 -463 -1 -490 15 -486 10 2 324 56
698 119 374 63 697 119 718 125 36 11 42 18 77 93 123 266 232 641 274 942 32
225 48 516 29 514 -5 0 -413 -184 -908 -409z"/>
<path d="M7531 3100 c-315 -54 -589 -101 -607 -105 l-34 -6 0 -117 c0 -178
-32 -282 -115 -383 -49 -58 -136 -122 -205 -151 l-55 -23 -1394 -3 c-1256 -2
-1400 -1 -1450 14 -143 41 -248 129 -314 262 l-42 85 -3 154 c-2 84 -5 153 -7
153 -3 0 -269 45 -592 100 -323 55 -592 100 -596 100 -5 0 -1 -7 8 -16 9 -9
39 -50 67 -91 217 -323 584 -684 933 -919 1027 -692 2302 -810 3431 -319 610
266 1167 729 1535 1277 54 80 57 88 37 87 -13 0 -281 -45 -597 -99z"/>
</g>
</svg>
