<svg height="512" width="512" xmlns="http://www.w3.org/2000/svg"><path d="M133.332 77.667h-90l24-33.834-24-33.833h90z" fill="#ffcd69"/><path d="M390.227 197.197H144.466c-33.635 0-60.901 27.266-60.901 60.901 0 33.635 27.266 60.901 60.901 60.901h245.762c33.635 0 60.901-27.267 60.901-60.901s-27.267-60.901-60.902-60.901z" fill="#c68a65"/><path d="M356.901 108.428H177.792c-24.513 0-44.384 19.872-44.384 44.384 0 24.513 19.872 44.384 44.384 44.384h179.109c24.513 0 44.384-19.872 44.384-44.384s-19.871-44.384-44.384-44.384zM228.679 108.428h-8.324c-15.17 0-27.468-12.298-27.468-27.468s12.298-27.468 27.468-27.468h16.559c13.701 0 24.807-11.107 24.807-24.808 0-10.319-8.365-18.684-18.684-18.684h57.428c27.18 0 49.214 22.034 49.214 49.214s-22.034 49.214-49.214 49.214h-33.498" fill="#fff"/><path d="M468.666 288.276l-51.612 185.705C412.452 490.541 397.373 502 380.186 502H154.761c-17.187 0-32.266-11.459-36.868-28.019L66.281 288.276l28.724-28.724 28.724 28.724 28.724-28.724 28.724 28.724 28.724-28.724 28.724 28.724 28.724-28.724 28.724 28.724 28.724-28.724 28.724 28.724 28.724-28.724 28.724 28.724 28.724-28.724 28.724 28.724" fill="#ff7d97"/><path d="M474.303 280.025l-13.671-13.671c.318-2.736.498-5.495.498-8.255 0-36.269-27.381-66.247-62.554-70.393 7.926-9.451 12.71-21.622 12.71-34.893 0-29.988-24.396-54.385-54.384-54.385h-12.12c9.26-10.453 14.899-24.184 14.899-39.214C359.68 26.563 333.117 0 300.466 0h-57.428c-5.523 0-10 4.477-10 10s4.477 10 10 10c4.788 0 8.684 3.896 8.684 8.684 0 8.165-6.643 14.808-14.807 14.808h-16.559c-20.66 0-37.468 16.809-37.468 37.469a37.228 37.228 0 004.335 17.468h-9.43c-13.068 0-25.071 4.635-34.459 12.345V10c0-5.523-4.477-10-10-10h-90a10 10 0 00-8.156 15.786l19.896 28.047-19.898 28.048a10 10 0 008.156 15.786h80v102.748c-28.806 9.013-49.769 35.946-49.769 67.684 0 2.76.18 5.519.497 8.255l-14.851 14.851a10 10 0 00-2.564 9.749l51.611 185.705C114.041 497.468 133.164 512 154.761 512h67.712c5.523 0 10-4.478 10-10s-4.477-10-10-10h-67.712c-12.648 0-23.847-8.511-27.233-20.696L77.479 291.221l17.526-17.525 21.652 21.652a10.003 10.003 0 0014.142 0l21.653-21.652 21.652 21.652c3.905 3.904 10.237 3.904 14.143 0l21.652-21.652 21.653 21.652c3.904 3.904 10.237 3.904 14.142 0l21.653-21.652 21.652 21.652c3.905 3.904 10.237 3.904 14.143 0l21.652-21.652 21.652 21.652c3.905 3.904 10.237 3.904 14.142 0l21.652-21.652 21.652 21.652c3.905 3.904 10.237 3.904 14.143 0l21.652-21.652 17.725 17.725-49.992 179.883C404.033 483.489 392.834 492 380.186 492h-67.712c-5.523 0-10 4.478-10 10s4.477 10 10 10h67.712c21.597 0 40.72-14.532 46.503-35.341L478.3 290.954c1.177-4.234-.56-8.581-3.997-10.929zM202.887 80.96c0-9.632 7.836-17.469 17.468-17.469h16.559c19.193 0 34.807-15.614 34.807-34.808a28.6 28.6 0 00-1.343-8.684h30.088c21.622 0 39.214 17.591 39.214 39.214s-17.591 39.214-39.214 39.214h-80.111c-9.632.001-17.468-7.835-17.468-17.467zm-25.095 37.468h179.109c18.96 0 34.384 15.425 34.384 34.385s-15.425 34.385-34.384 34.385H177.792c-18.959 0-34.384-15.425-34.384-34.385s15.425-34.385 34.384-34.385zM75.489 38.047L62.687 20h60.646v47.667H62.687l12.802-18.048a10.002 10.002 0 000-11.572zm357.128 214.434l-21.652 21.652-21.653-21.652c-3.904-3.904-10.237-3.904-14.142 0l-21.653 21.652-21.652-21.652c-3.905-3.904-10.237-3.904-14.143 0l-21.652 21.652-21.652-21.652c-3.905-3.904-10.237-3.904-14.142 0l-21.652 21.652-21.652-21.652c-3.905-3.904-10.237-3.904-14.143 0l-21.652 21.652-21.652-21.652c-3.905-3.904-10.237-3.904-14.143 0l-21.652 21.652-21.652-21.652a10.003 10.003 0 00-7.071-2.929c-.24 0-.478.018-.716.035 4.063-24.028 25.01-42.391 50.176-42.391h245.762c25.166 0 46.112 18.362 50.176 42.39a9.977 9.977 0 00-7.788 2.895z"/><path d="M267.469 492c-2.63 0-5.21 1.069-7.07 2.93a10.058 10.058 0 00-2.93 7.07c0 2.63 1.07 5.21 2.93 7.069 1.87 1.86 4.44 2.931 7.07 2.931s5.21-1.07 7.08-2.931c1.86-1.859 2.92-4.439 2.92-7.069s-1.06-5.21-2.92-7.07a10.095 10.095 0 00-7.08-2.93z"/></svg>